PathFileType	4	(X/Y/Z)	 1.9Hzlow3min.trc
DataRate	CameraRate	NumFrames	NumMarkers	Units	OrigDataRate	OrigDataStartFrame	OrigNumFrames
200	200	10	35	m	200	501	1000
Frame#	Time	C7			LSH			RSH			MAN			RASI			LASI			HIPR			HIPL			RPSI			LPSI			COX			RTHI1			RTHI2			RTHI3			RTHI4			RSHA1			RSHA2			RSHA3			RSHA4			RHEEL			RMET5			RMET1			RTOE			LTHI1			LTHI2			LTHI3			LTHI4			LSHA1			LSHA2			LSHA3			LSHA4			LHEEL			LMET5			LMET1			LTOE			
		X1	Y1	Z1	X2	Y2	Z2	X3	Y3	Z3	X4	Y4	Z4	X5	Y5	Z5	X6	Y6	Z6	X7	Y7	Z7	X8	Y8	Z8	X9	Y9	Z9	X10	Y10	Z10	X11	Y11	Z11	X12	Y12	Z12	X13	Y13	Z13	X14	Y14	Z14	X15	Y15	Z15	X16	Y16	Z16	X17	Y17	Z17	X18	Y18	Z18	X19	Y19	Z19	X20	Y20	Z20	X21	Y21	Z21	X22	Y22	Z22	X23	Y23	Z23	X24	Y24	Z24	X25	Y25	Z25	X26	Y26	Z26	X27	Y27	Z27	X28	Y28	Z28	X29	Y29	Z29	X30	Y30	Z30	X31	Y31	Z31	X32	Y32	Z32	X33	Y33	Z33	X34	Y34	Z34	X35	Y35	Z35	
501	2.5050	-0.315794	1.620768	-0.556099	-0.272904	1.600735	-0.782163	-0.247566	1.600808	-0.353173	-0.169224	1.565148	-0.565983	-0.170820	1.111121	-0.444944	-0.161776	1.110272	-0.660026	-0.221594	1.166282	-0.400468	-0.221133	1.165985	-0.720949	-0.350239	1.149112	-0.503151	-0.352018	1.145142	-0.617578	-0.357078	1.155861	-0.556530	-0.252385	0.856059	-0.366938	-0.232875	0.801950	-0.350919	-0.171697	0.823181	-0.342924	-0.183907	0.881244	-0.360277	-0.339075	0.412224	-0.342786	-0.337941	0.370995	-0.353583	-0.279624	0.375044	-0.336132	-0.283194	0.414221	-0.329659	-0.440576	0.103068	-0.430066	-0.284415	0.027728	-0.332958	-0.227617	0.043041	-0.411324	-0.199143	0.032296	-0.405190	-0.202198	0.857820	-0.775690	-0.182434	0.799863	-0.784097	-0.121783	0.812219	-0.766833	-0.132543	0.870914	-0.756558	-0.267269	0.406699	-0.789189	-0.286598	0.371162	-0.786934	-0.229127	0.348292	-0.774919	-0.216713	0.390569	-0.779238	-0.423324	0.103825	-0.717401	-0.259797	0.026152	-0.792109	-0.204148	0.038585	-0.711094	-0.177083	0.029364	-0.716523	
502	2.5100	-0.315775	1.615539	-0.556016	-0.272993	1.595043	-0.782380	-0.247395	1.594959	-0.352924	-0.169288	1.559546	-0.565956	-0.171895	1.105665	-0.444954	-0.162671	1.104808	-0.660107	-0.222396	1.160575	-0.400610	-0.221978	1.160292	-0.721144	-0.351289	1.143686	-0.503438	-0.352976	1.139750	-0.617791	-0.358057	1.150440	-0.556759	-0.252598	0.850783	-0.366727	-0.232765	0.796786	-0.350634	-0.171835	0.818456	-0.342152	-0.184357	0.876439	-0.359617	-0.337185	0.408797	-0.342120	-0.336600	0.367514	-0.353016	-0.278136	0.371053	-0.336072	-0.281236	0.410261	-0.329463	-0.441940	0.099808	-0.430439	-0.284682	0.027291	-0.332197	-0.227596	0.042727	-0.411429	-0.199102	0.031795	-0.405431	-0.202425	0.852672	-0.776297	-0.182411	0.794823	-0.784879	-0.121659	0.807558	-0.768086	-0.132694	0.866187	-0.757687	-0.265804	0.402778	-0.789684	-0.285477	0.367410	-0.787481	-0.228275	0.344005	-0.775242	-0.215446	0.386168	-0.779545	-0.424903	0.100595	-0.717171	-0.260085	0.025712	-0.792915	-0.204458	0.038455	-0.710957	-0.177324	0.029216	-0.716362	
503	2.5150	-0.315772	1.610249	-0.555963	-0.273087	1.589313	-0.782604	-0.247260	1.589070	-0.352717	-0.169340	1.553871	-0.565945	-0.173002	1.100158	-0.444955	-0.163594	1.099272	-0.660160	-0.223199	1.154808	-0.400785	-0.222802	1.154509	-0.721342	-0.352370	1.138222	-0.503756	-0.353967	1.134301	-0.618022	-0.359066	1.145001	-0.557011	-0.252849	0.845526	-0.366419	-0.232657	0.791602	-0.350339	-0.171979	0.813717	-0.341373	-0.184820	0.871623	-0.358962	-0.335381	0.405250	-0.341610	-0.335211	0.363960	-0.352532	-0.276659	0.367063	-0.336057	-0.279397	0.406310	-0.329430	-0.443197	0.096638	-0.430972	-0.284911	0.026925	-0.331618	-0.227594	0.042464	-0.411586	-0.199075	0.031427	-0.405641	-0.202688	0.847453	-0.776918	-0.182420	0.789730	-0.785708	-0.121571	0.802838	-0.769402	-0.132883	0.861400	-0.758877	-0.264358	0.398805	-0.790076	-0.284347	0.363604	-0.787889	-0.227390	0.339696	-0.775474	-0.214176	0.381753	-0.779799	-0.426321	0.097482	-0.716669	-0.260347	0.025345	-0.793550	-0.204713	0.038327	-0.710786	-0.177514	0.029069	-0.716230	
504	2.5200	-0.315786	1.604919	-0.555936	-0.273175	1.583568	-0.782836	-0.247166	1.583162	-0.352560	-0.169373	1.548147	-0.565951	-0.174146	1.094622	-0.444953	-0.164553	1.093676	-0.660193	-0.224020	1.149003	-0.400974	-0.223614	1.148649	-0.721537	-0.353487	1.132725	-0.504093	-0.355001	1.128828	-0.618271	-0.360097	1.139577	-0.557288	-0.253200	0.840342	-0.365884	-0.232544	0.786417	-0.350029	-0.172128	0.808988	-0.340590	-0.185295	0.866802	-0.358314	-0.333747	0.401598	-0.341388	-0.333775	0.360356	-0.352140	-0.275190	0.363085	-0.336076	-0.277672	0.402289	-0.329426	-0.444339	0.093585	-0.431686	-0.285105	0.026660	-0.331242	-0.227609	0.042258	-0.411777	-0.199040	0.031172	-0.405808	-0.202963	0.842183	-0.777556	-0.182427	0.784565	-0.786545	-0.121482	0.798094	-0.770764	-0.133078	0.856591	-0.760120	-0.262914	0.394775	-0.790348	-0.283193	0.359733	-0.788125	-0.226449	0.335377	-0.775580	-0.212885	0.377332	-0.779980	-0.427541	0.094485	-0.715844	-0.260567	0.025072	-0.794008	-0.204889	0.038203	-0.710595	-0.177625	0.028952	-0.716141	
505	2.5250	-0.315816	1.599578	-0.555931	-0.273248	1.577825	-0.783076	-0.247125	1.577264	-0.352456	-0.169360	1.542371	-0.565972	-0.175327	1.089066	-0.444950	-0.165546	1.088043	-0.660219	-0.224966	1.143175	-0.401112	-0.224422	1.142724	-0.721724	-0.354652	1.127234	-0.504429	-0.356078	1.123361	-0.618520	-0.361155	1.134196	-0.557570	-0.253563	0.835130	-0.365312	-0.232409	0.781260	-0.349691	-0.172278	0.804281	-0.339808	-0.185768	0.862002	-0.357682	-0.332161	0.397925	-0.341235	-0.332337	0.356705	-0.351994	-0.273710	0.359132	-0.336137	-0.276010	0.398280	-0.329401	-0.445295	0.090645	-0.432627	-0.285276	0.026493	-0.331046	-0.227615	0.042104	-0.411974	-0.198973	0.031008	-0.405921	-0.203215	0.836895	-0.778198	-0.182398	0.779378	-0.787373	-0.121364	0.793362	-0.772146	-0.133269	0.851767	-0.761387	-0.261449	0.390706	-0.790496	-0.281988	0.355820	-0.788173	-0.225425	0.331070	-0.775529	-0.211549	0.372921	-0.780072	-0.428550	0.091635	-0.714680	-0.260747	0.024897	-0.794282	-0.204971	0.038083	-0.710402	-0.177614	0.028827	-0.716055	
506	2.5300	-0.315855	1.594267	-0.555941	-0.273305	1.572112	-0.783321	-0.247132	1.571383	-0.352401	-0.169298	1.536567	-0.566010	-0.176537	1.083503	-0.444964	-0.166576	1.082394	-0.660250	-0.226037	1.137319	-0.401201	-0.225243	1.136760	-0.721903	-0.355828	1.121789	-0.504780	-0.357199	1.117931	-0.618759	-0.362240	1.128894	-0.557848	-0.253924	0.829924	-0.364712	-0.232244	0.776148	-0.349349	-0.172401	0.799625	-0.339048	-0.186232	0.857243	-0.357074	-0.330578	0.394238	-0.341250	-0.330842	0.353083	-0.352025	-0.272184	0.355257	-0.336246	-0.274373	0.394319	-0.329399	-0.446062	0.087848	-0.433771	-0.285428	0.026409	-0.330992	-0.227594	0.041994	-0.412149	-0.198861	0.030900	-0.405965	-0.203422	0.831622	-0.778834	-0.182300	0.774209	-0.788204	-0.121202	0.788663	-0.773507	-0.133432	0.846972	-0.762649	-0.259934	0.386637	-0.790496	-0.280710	0.351898	-0.788014	-0.224298	0.326804	-0.775302	-0.210147	0.368549	-0.780051	-0.429328	0.088955	-0.713164	-0.260889	0.024818	-0.794382	-0.204945	0.037973	-0.710220	-0.177461	0.028758	-0.716047	
507	2.5350	-0.315894	1.589014	-0.555963	-0.273344	1.566454	-0.783566	-0.247184	1.565537	-0.352381	-0.169185	1.530762	-0.566065	-0.177790	1.077964	-0.445000	-0.167644	1.076756	-0.660305	-0.227245	1.131443	-0.401227	-0.226100	1.130781	-0.722071	-0.357058	1.116397	-0.505119	-0.358360	1.112575	-0.618975	-0.363352	1.123705	-0.558114	-0.254257	0.824756	-0.364096	-0.232030	0.771122	-0.349013	-0.172484	0.795065	-0.338333	-0.186674	0.852564	-0.356503	-0.328991	0.390592	-0.341451	-0.329254	0.349552	-0.352215	-0.270586	0.351506	-0.336394	-0.272693	0.390491	-0.329448	-0.446613	0.085222	-0.435105	-0.285572	0.026387	-0.331026	-0.227531	0.041923	-0.412290	-0.198702	0.030829	-0.405943	-0.203565	0.826412	-0.779456	-0.182132	0.769093	-0.788989	-0.120982	0.784039	-0.774801	-0.133555	0.842241	-0.763863	-0.258343	0.382640	-0.790327	-0.279337	0.348059	-0.787646	-0.223052	0.322653	-0.774904	-0.208651	0.364287	-0.779898	-0.429877	0.086492	-0.711361	-0.261009	0.024819	-0.794326	-0.204811	0.037883	-0.710068	-0.177212	0.028704	-0.716118	
508	2.5400	-0.315927	1.583846	-0.555996	-0.273370	1.560881	-0.783805	-0.247289	1.559754	-0.352385	-0.169027	1.524985	-0.566134	-0.179081	1.072460	-0.445048	-0.168751	1.071155	-0.660398	-0.228569	1.125567	-0.401213	-0.227022	1.124826	-0.722229	-0.358308	1.111114	-0.505455	-0.359553	1.107337	-0.619168	-0.364490	1.118652	-0.558360	-0.254549	0.819661	-0.363446	-0.231741	0.766222	-0.348698	-0.172508	0.790619	-0.337672	-0.187072	0.847991	-0.355979	-0.327261	0.387121	-0.341750	-0.327568	0.346184	-0.352557	-0.268898	0.347935	-0.336580	-0.270940	0.386858	-0.329527	-0.446961	0.082799	-0.436571	-0.285708	0.026417	-0.331120	-0.227427	0.041878	-0.412396	-0.198500	0.030790	-0.405870	-0.203629	0.821315	-0.780041	-0.181889	0.764094	-0.789687	-0.120696	0.779528	-0.775977	-0.133619	0.837612	-0.764978	-0.256650	0.378839	-0.789980	-0.277854	0.344412	-0.787080	-0.221677	0.318706	-0.774359	-0.207043	0.360226	-0.779612	-0.430204	0.084270	-0.709326	-0.261123	0.024885	-0.794133	-0.204587	0.037806	-0.709952	-0.176879	0.028669	-0.716243	
509	2.5450	-0.315944	1.578796	-0.556036	-0.273385	1.555416	-0.784031	-0.247436	1.554064	-0.352398	-0.168831	1.519268	-0.566212	-0.180412	1.067009	-0.445114	-0.169897	1.065624	-0.660540	-0.230086	1.119747	-0.401110	-0.228034	1.118933	-0.722382	-0.359597	1.106012	-0.505790	-0.360773	1.102231	-0.619331	-0.365661	1.113746	-0.558578	-0.254672	0.814612	-0.363039	-0.231414	0.761483	-0.348309	-0.172452	0.786312	-0.337073	-0.187406	0.843566	-0.355498	-0.325299	0.383894	-0.341976	-0.325790	0.343050	-0.353031	-0.267122	0.344585	-0.336793	-0.269077	0.383450	-0.329665	-0.447124	0.080603	-0.438099	-0.285836	0.026481	-0.331253	-0.227281	0.041851	-0.412477	-0.198269	0.030777	-0.405759	-0.203600	0.816374	-0.780565	-0.181551	0.759236	-0.790306	-0.120341	0.775169	-0.776997	-0.133629	0.833121	-0.765949	-0.254840	0.375347	-0.789465	-0.276253	0.341082	-0.786339	-0.220182	0.315055	-0.773700	-0.205316	0.356461	-0.779211	-0.430338	0.082338	-0.707121	-0.261248	0.025008	-0.793819	-0.204296	0.037741	-0.709863	-0.176470	0.028656	-0.716426	
510	2.5500	-0.315936	1.573886	-0.556083	-0.273385	1.550092	-0.784238	-0.247609	1.548487	-0.352407	-0.168624	1.513660	-0.566293	-0.181784	1.061662	-0.445192	-0.171088	1.060191	-0.660741	-0.231770	1.114038	-0.400940	-0.229159	1.113147	-0.722535	-0.360891	1.101068	-0.506113	-0.362019	1.097279	-0.619467	-0.366857	1.109002	-0.558777	-0.254669	0.809719	-0.362727	-0.231036	0.756919	-0.347838	-0.172288	0.782180	-0.336538	-0.187668	0.839301	-0.355064	-0.323215	0.380950	-0.342343	-0.323910	0.340227	-0.353526	-0.265271	0.341495	-0.337018	-0.267104	0.380312	-0.329872	-0.447144	0.078649	-0.439627	-0.285946	0.026570	-0.331423	-0.227105	0.041837	-0.412542	-0.198020	0.030785	-0.405634	-0.203482	0.811627	-0.781023	-0.181098	0.754584	-0.790833	-0.119900	0.771019	-0.777839	-0.133567	0.828846	-0.766750	-0.252911	0.372259	-0.788791	-0.274540	0.338162	-0.785456	-0.218584	0.311778	-0.772975	-0.203469	0.353072	-0.778713	-0.430302	0.080697	-0.704827	-0.261393	0.025169	-0.793404	-0.203951	0.037695	-0.709781	-0.176040	0.028660	-0.716660	
